<svg width="616" height="608" viewBox="0 0 616 608" fill="none" xmlns="http://www.w3.org/2000/svg">
<path d="M329 213H289C284.757 213 280.687 214.686 277.686 217.686C274.686 220.687 273 224.757 273 229C273 233.243 274.686 237.313 277.686 240.314C280.687 243.314 284.757 245 289 245H329C337.487 245 345.626 248.371 351.627 254.373C357.629 260.374 361 268.513 361 277C361 285.487 357.629 293.626 351.627 299.627C345.626 305.629 337.487 309 329 309H289C284.758 309.005 280.691 310.692 277.692 313.692C274.692 316.691 273.005 320.758 273 325V349H257V325C257.01 316.516 260.384 308.382 266.383 302.383C272.382 296.384 280.516 293.01 289 293H329C333.243 293 337.313 291.314 340.314 288.314C343.314 285.313 345 281.243 345 277C345 272.757 343.314 268.687 340.314 265.686C337.313 262.686 333.243 261 329 261H289C280.513 261 272.374 257.629 266.373 251.627C260.371 245.626 257 237.487 257 229C257 220.513 260.371 212.374 266.373 206.373C272.374 200.371 280.513 197 289 197H329C333.242 196.995 337.309 195.308 340.308 192.308C343.308 189.309 344.995 185.242 345 181V101H361V181C360.99 189.484 357.616 197.618 351.617 203.617C345.618 209.616 337.484 212.99 329 213Z" fill="black"/>
<path fill-rule="evenodd" clip-rule="evenodd" d="M219 572H374V565H370.568C380.151 558.271 388.297 549.699 394.529 539.786C400.762 529.872 404.957 518.817 406.868 507.264C428.199 500.651 445.368 487.259 457.942 467.364C470.275 447.847 474.927 426.77 476.602 415.943C477.113 412.607 476.896 409.2 475.967 405.956C475.038 402.712 473.418 399.707 471.218 397.148C469.019 394.589 466.291 392.535 463.224 391.129C460.156 389.723 456.821 388.996 453.446 389H408.03V373C408.03 370.878 407.187 368.843 405.687 367.343C404.187 365.843 402.152 365 400.03 365H193.97C191.848 365 189.813 365.843 188.313 367.343C186.813 368.843 185.97 370.878 185.97 373V493C185.973 507.128 189.379 521.047 195.9 533.579C202.421 546.112 211.864 556.89 223.432 565H219V572ZM456.564 405.671C455.586 405.222 454.522 404.993 453.446 405H408.03V489.792C426.213 482.232 453.158 462.819 460.79 413.492C460.956 412.446 460.891 411.377 460.6 410.359C460.308 409.341 459.797 408.399 459.103 407.6C458.408 406.779 457.541 406.12 456.564 405.671ZM201.97 381V493C201.991 512.089 209.584 530.39 223.082 543.888C236.58 557.386 254.881 564.979 273.97 565H320.03C339.119 564.979 357.42 557.386 370.918 543.888C384.416 530.39 392.009 512.089 392.03 493V381H201.97Z" fill="black"/>
<path fill-rule="evenodd" clip-rule="evenodd" d="M308 608C478.104 608 616 471.895 616 304C616 136.105 478.104 0 308 0C137.896 0 0 136.105 0 304C0 471.895 137.896 608 308 608ZM308 572.923C458.195 572.923 579.952 452.76 579.952 304.531C579.952 156.303 458.195 36.1399 308 36.1399C157.805 36.1399 36.0482 156.303 36.0482 304.531C36.0482 452.76 157.805 572.923 308 572.923Z" fill="black"/>
</svg>
